<svg width="180" height="180" viewBox="0 0 180 180" fill="none" xmlns="http://www.w3.org/2000/svg">
  <rect width="180" height="180" rx="36" fill="#1a2744"/>
  <!-- Brain outline -->
  <g transform="translate(28, 28) scale(0.69)">
    <!-- Left hemisphere -->
    <path d="M90 30 C65 30 45 48 40 70 C35 85 38 100 45 112 C38 118 35 128 40 138 C45 148 58 152 70 148 C75 155 83 160 90 160" stroke="white" stroke-width="7" stroke-linecap="round" stroke-linejoin="round" fill="none"/>
    <!-- Right hemisphere -->
    <path d="M90 30 C115 30 135 48 140 70 C145 85 142 100 135 112 C142 118 145 128 140 138 C135 148 122 152 110 148 C105 155 97 160 90 160" stroke="white" stroke-width="7" stroke-linecap="round" stroke-linejoin="round" fill="none"/>
    <!-- Center line -->
    <line x1="90" y1="30" x2="90" y2="160" stroke="white" stroke-width="4" stroke-dasharray="8 5"/>
    <!-- Brain folds left -->
    <path d="M55 70 C62 65 70 68 72 75" stroke="white" stroke-width="5" stroke-linecap="round" fill="none"/>
    <path d="M50 100 C58 95 67 98 70 106" stroke="white" stroke-width="5" stroke-linecap="round" fill="none"/>
    <path d="M58 128 C65 122 74 125 76 133" stroke="white" stroke-width="5" stroke-linecap="round" fill="none"/>
    <!-- Brain folds right -->
    <path d="M125 70 C118 65 110 68 108 75" stroke="white" stroke-width="5" stroke-linecap="round" fill="none"/>
    <path d="M130 100 C122 95 113 98 110 106" stroke="white" stroke-width="5" stroke-linecap="round" fill="none"/>
    <path d="M122 128 C115 122 106 125 104 133" stroke="white" stroke-width="5" stroke-linecap="round" fill="none"/>
  </g>
  <!-- IQ text at bottom -->
  <text x="90" y="162" font-family="Arial, sans-serif" font-weight="800" font-size="22" fill="white" text-anchor="middle" letter-spacing="3">IQ</text>
</svg>
